RobotoSerifDisplay-HairlineWidth100.ufo
<glyph name="parenleft" format="2">
  <advance width="216.078"/>
  <unicode hex="0028"/>
  <outline>
    <contour>
      <point x="68.304" y="310.0" type="curve" smooth="yes"/>
      <point x="68.304" y="105.3"/>
      <point x="135.625075029582" y="-46.1405561394164"/>
      <point x="202.192" y="-127.0" type="curve"/>
      <point x="202.192" y="-130.0" type="line"/>
      <point x="187.666" y="-130.0" type="line"/>
      <point x="109.314" y="-45.58"/>
      <point x="39.494" y="113.7"/>
      <point x="39.494" y="310.0" type="curve" smooth="yes"/>
      <point x="39.494" y="506.3"/>
      <point x="109.314" y="665.58"/>
      <point x="187.666" y="750.0" type="curve"/>
      <point x="202.192" y="750.0" type="line"/>
      <point x="202.192" y="747.0" type="line"/>
      <point x="135.625075029582" y="666.1405561393819"/>
      <point x="68.304" y="514.7"/>
    </contour>
  </outline>
</glyph>
<glyph name="nine" format="2">
  <advance width="383.6"/>
  <unicode hex="0039"/>
  <outline>
    <contour>
      <point x="65.62" y="-75.74" type="line"/>
      <point x="217.33" y="-58.3"/>
      <point x="314.514" y="88.754566585956"/>
      <point x="314.514" y="333.36" type="curve" smooth="yes"/>
      <point x="314.514" y="514.0"/>
      <point x="263.124" y="601.04"/>
      <point x="187.82" y="601.04" type="curve" smooth="yes"/>
      <point x="110.9" y="601.04"/>
      <point x="66.754" y="509.102850554824"/>
      <point x="66.754" y="391.12" type="curve" smooth="yes"/>
      <point x="66.754" y="277.97718032789"/>
      <point x="107.314" y="195.38"/>
      <point x="178.562" y="195.38" type="curve" smooth="yes"/>
      <point x="243.268" y="195.38"/>
      <point x="297.78" y="269.68"/>
      <point x="324.014" y="356.84" type="curve"/>
      <point x="323.794" y="355.3"/>
      <point x="330.952" y="346.3"/>
      <point x="331.414" y="345.46" type="curve"/>
      <point x="305.94" y="259.86"/>
      <point x="248.49" y="177.14"/>
      <point x="173.69" y="177.14" type="curve" smooth="yes"/>
      <point x="88.038" y="177.14"/>
      <point x="29.356" y="264.3"/>
      <point x="29.356" y="391.12" type="curve" smooth="yes"/>
      <point x="29.356" y="515.96573873874"/>
      <point x="94.438" y="619.0"/>
      <point x="187.82" y="619.0" type="curve" smooth="yes"/>
      <point x="281.466" y="619.0"/>
      <point x="351.67" y="515.84"/>
      <point x="351.67" y="333.36" type="curve" smooth="yes"/>
      <point x="351.67" y="102.08"/>
      <point x="243.248388765234" y="-75.8646674604872"/>
      <point x="67.94" y="-93.0" type="curve"/>
    </contour>
  </outline>
</glyph>
<glyph name="less" format="2">
  <advance width="383.6"/>
  <unicode hex="003C"/>
  <outline>
    <contour>
      <point x="316.024" y="529.98" type="line"/>
      <point x="67.796" y="353.54" type="line"/>
      <point x="67.796" y="328.1" type="line"/>
      <point x="81.496" y="327.82" type="line"/>
      <point x="316.024" y="493.4" type="line"/>
    </contour>
    <contour>
      <point x="316.024" y="173.22" type="line"/>
      <point x="79.88" y="340.52" type="line"/>
      <point x="67.796" y="338.68" type="line"/>
      <point x="67.796" y="312.52" type="line"/>
      <point x="316.024" y="136.08" type="line"/>
    </contour>
  </outline>
</glyph>
<glyph name="J" format="2">
  <advance width="360.362"/>
  <unicode hex="004A"/>
  <outline>
    <contour>
      <point x="176.76" y="710.0" type="line"/>
      <point x="176.76" y="694.62" type="line"/>
      <point x="190.054" y="694.62" type="line" smooth="yes"/>
      <point x="220.258" y="694.62"/>
      <point x="243.282" y="689.34"/>
      <point x="243.282" y="667.22" type="curve" smooth="yes"/>
      <point x="243.282" y="201.58" type="line" smooth="yes"/>
      <point x="243.282" y="51.0742465753426"/>
      <point x="203.194" y="8.66"/>
      <point x="143.556" y="8.66" type="curve" smooth="yes"/>
      <point x="93.408" y="8.66"/>
      <point x="64.5428232400122" y="41.2326049460718"/>
      <point x="49.494" y="74.54" type="curve"/>
      <point x="44.3887798830404" y="80.98614968827201"/>
      <point x="60.790077981438" y="29.2006851298034"/>
      <point x="68.648" y="27.240000000000002" type="curve"/>
      <point x="68.648" y="125.32" type="line"/>
      <point x="30.876" y="125.32" type="line"/>
      <point x="30.876" y="51.68" type="line"/>
      <point x="49.084" y="23.28"/>
      <point x="87.668" y="-10.0"/>
      <point x="143.556" y="-10.0" type="curve" smooth="yes"/>
      <point x="221.932" y="-10.0"/>
      <point x="278.58" y="45.4"/>
      <point x="278.58" y="205.88" type="curve" smooth="yes"/>
      <point x="278.58" y="667.22" type="line" smooth="yes"/>
      <point x="278.58" y="689.34"/>
      <point x="301.604" y="694.62"/>
      <point x="330.884" y="694.62" type="curve" smooth="yes"/>
      <point x="337.58" y="694.62" type="line"/>
      <point x="337.58" y="710.0" type="line"/>
    </contour>
  </outline>
</glyph>
<glyph name="P" format="2">
  <advance width="401"/>
  <unicode hex="0050"/>
  <outline>
    <contour>
      <point x="119" y="28" type="line"/>
      <point x="119" y="18"/>
      <point x="149" y="15"/>
      <point x="173" y="15" type="curve" smooth="yes"/>
      <point x="189" y="15" type="line"/>
      <point x="189" y="0.0" type="line"/>
      <point x="24" y="0.0" type="line"/>
      <point x="24" y="15" type="line"/>
      <point x="31" y="15" type="line" smooth="yes"/>
      <point x="60" y="15"/>
      <point x="83" y="21"/>
      <point x="83" y="43" type="curve" smooth="yes"/>
      <point x="83" y="667" type="line" smooth="yes"/>
      <point x="83" y="689"/>
      <point x="60" y="695"/>
      <point x="31" y="695" type="curve" smooth="yes"/>
      <point x="24" y="695" type="line"/>
      <point x="24" y="710.0" type="line"/>
      <point x="208" y="710.0" type="line" smooth="yes"/>
      <point x="321" y="710.0"/>
      <point x="380" y="635"/>
      <point x="380" y="514" type="curve" smooth="yes"/>
      <point x="380" y="393"/>
      <point x="318" y="310"/>
      <point x="205" y="310" type="curve" smooth="yes"/>
      <point x="99" y="310" type="line"/>
      <point x="99" y="328" type="line"/>
      <point x="204" y="328" type="line" smooth="yes"/>
      <point x="299" y="328"/>
      <point x="343" y="400"/>
      <point x="343" y="513" type="curve" smooth="yes"/>
      <point x="343" y="627"/>
      <point x="299" y="692"/>
      <point x="208" y="692" type="curve" smooth="yes"/>
      <point x="119" y="692" type="line"/>
    </contour>
  </outline>
</glyph>
<glyph name="V" format="2">
  <advance width="452"/>
  <unicode hex="0056"/>
  <outline>
    <contour>
      <point x="242.522" y="21.2" type="line"/>
      <point x="83.016" y="684.48" type="line"/>
      <point x="83.016" y="691.48"/>
      <point x="112.352" y="694.62"/>
      <point x="136.332" y="694.62" type="curve" smooth="yes"/>
      <point x="147.712" y="694.62" type="line"/>
      <point x="147.712" y="710.0" type="line"/>
      <point x="5.058" y="710.0" type="line"/>
      <point x="5.058" y="694.62" type="line"/>
      <point x="8.258" y="694.62" type="line"/>
      <point x="29.818" y="694.62"/>
      <point x="43.98" y="692.34"/>
      <point x="49.82" y="665.78" type="curve" smooth="yes"/>
      <point x="212.812" y="0.0" type="line"/>
      <point x="240.5" y="0.0" type="line"/>
      <point x="398.312" y="653.68" type="line" smooth="yes"/>
      <point x="406.394" y="687.08"/>
      <point x="422.338" y="693.76"/>
      <point x="442.58" y="694.62" type="curve"/>
      <point x="446.22" y="694.62" type="line"/>
      <point x="446.22" y="710.0" type="line"/>
      <point x="324.38" y="710.0" type="line"/>
      <point x="324.38" y="694.62" type="line"/>
      <point x="336.948" y="694.62" type="line" smooth="yes"/>
      <point x="363.502" y="694.62"/>
      <point x="387.558" y="685.34"/>
      <point x="387.558" y="674.2" type="curve"/>
      <point x="231.154" y="23.02" type="line"/>
    </contour>
  </outline>
</glyph>
<glyph name="m" format="2">
  <advance width="588"/>
  <unicode hex="006D"/>
  <outline>
    <contour>
      <point x="18.066" y="0.0" type="line"/>
      <point x="153.98" y="0.0" type="line"/>
      <point x="153.98" y="15.38" type="line"/>
      <point x="152.122" y="15.38" type="line" smooth="yes"/>
      <point x="134.222" y="15.38"/>
      <point x="106.8" y="18.38"/>
      <point x="106.8" y="25.38" type="curve" smooth="yes"/>
      <point x="106.8" y="409.3" type="line"/>
      <point x="105.656" y="419.58" type="line"/>
      <point x="105.656" y="518.0" type="line"/>
      <point x="18.066" y="518.0" type="line"/>
      <point x="18.066" y="503.48" type="line"/>
      <point x="30.5" y="501.48" type="line" smooth="yes"/>
      <point x="62.838" y="496.06"/>
      <point x="71.986" y="492.36"/>
      <point x="71.986" y="474.54" type="curve" smooth="yes"/>
      <point x="71.986" y="40.2" type="line" smooth="yes"/>
      <point x="71.986" y="19.8"/>
      <point x="49.666" y="15.38"/>
      <point x="20.066" y="15.38" type="curve" smooth="yes"/>
      <point x="18.066" y="15.38" type="line"/>
    </contour>
    <contour>
      <point x="361.36" y="0.0" type="line"/>
      <point x="361.36" y="15.38" type="line"/>
      <point x="359.58" y="15.38" type="line" smooth="yes"/>
      <point x="336.028" y="15.38"/>
      <point x="314.18" y="19.240000000000002"/>
      <point x="314.18" y="36.56" type="curve" smooth="yes"/>
      <point x="314.18" y="392.8" type="line" smooth="yes"/>
      <point x="314.18" y="485.74"/>
      <point x="277.434" y="528.0"/>
      <point x="219.236" y="528.0" type="curve" smooth="yes"/>
      <point x="168.01" y="528.0"/>
      <point x="131.956" y="485.72"/>
      <point x="100.576" y="418.44" type="curve"/>
      <point x="100.576" y="389.8" type="line"/>
      <point x="131.956" y="462.34"/>
      <point x="167.328" y="508.2"/>
      <point x="213.264" y="508.2" type="curve" smooth="yes"/>
      <point x="261.39" y="508.2"/>
      <point x="279.366" y="471.34"/>
      <point x="279.366" y="387.5" type="curve" smooth="yes"/>
      <point x="279.366" y="25.38" type="line" smooth="yes"/>
      <point x="279.366" y="18.38"/>
      <point x="250.966" y="15.38"/>
      <point x="233.264" y="15.38" type="curve" smooth="yes"/>
      <point x="232.186" y="15.38" type="line"/>
      <point x="232.186" y="0.0" type="line"/>
    </contour>
    <contour>
      <point x="575.722" y="0.0" type="line"/>
      <point x="575.722" y="15.38" type="line"/>
      <point x="573.7" y="15.38" type="line" smooth="yes"/>
      <point x="543.902" y="15.38"/>
      <point x="521.78" y="19.8"/>
      <point x="521.78" y="40.2" type="curve" smooth="yes"/>
      <point x="521.78" y="392.8" type="line" smooth="yes"/>
      <point x="521.78" y="485.74"/>
      <point x="484.814" y="528.0"/>
      <point x="426.836" y="528.0" type="curve" smooth="yes"/>
      <point x="375.39" y="528.0"/>
      <point x="339.336" y="485.58"/>
      <point x="307.956" y="418.02" type="curve"/>
      <point x="307.956" y="389.52" type="line"/>
      <point x="339.336" y="462.06"/>
      <point x="374.906" y="508.2"/>
      <point x="420.864" y="508.2" type="curve" smooth="yes"/>
      <point x="468.99" y="508.2"/>
      <point x="486.966" y="471.34"/>
      <point x="486.966" y="387.5" type="curve" smooth="yes"/>
      <point x="486.966" y="25.38" type="line" smooth="yes"/>
      <point x="486.966" y="18.38"/>
      <point x="458.56600000000003" y="15.38"/>
      <point x="440.666" y="15.38" type="curve" smooth="yes"/>
      <point x="439.786" y="15.38" type="line"/>
      <point x="439.786" y="0.0" type="line"/>
    </contour>
  </outline>
</glyph>
<glyph name="cent" format="2">
  <advance width="383.6"/>
  <unicode hex="00A2"/>
  <outline>
    <contour>
      <point x="192.494" y="623.0" type="line"/>
      <point x="192.494" y="507.4" type="line"/>
      <point x="192.494" y="498.84" type="line"/>
      <point x="192.494" y="6.72" type="line"/>
      <point x="192.494" y="0.72" type="line"/>
      <point x="192.494" y="-126.0" type="line"/>
      <point x="216.992" y="-126.0" type="line"/>
      <point x="216.992" y="-2.0" type="line"/>
      <point x="216.992" y="6.16" type="line"/>
      <point x="216.992" y="497.4" type="line"/>
      <point x="216.992" y="504.68" type="line"/>
      <point x="216.992" y="623.0" type="line"/>
    </contour>
    <contour>
      <point x="207.876" y="18.28" type="curve" smooth="yes"/>
      <point x="127.094" y="18.28"/>
      <point x="75.946" y="106.68"/>
      <point x="75.946" y="253.84" type="curve" smooth="yes"/>
      <point x="75.946" y="392.98"/>
      <point x="122.796" y="489.12"/>
      <point x="213.11" y="489.12" type="curve" smooth="yes"/>
      <point x="264.225406896584" y="489.12"/>
      <point x="303.830400772966" y="457.833958754646"/>
      <point x="319.686" y="426.14" type="curve"/>
      <point x="326.546" y="447.56"/>
      <point x="318.012" y="455.76"/>
      <point x="302.114" y="465.08" type="curve"/>
      <point x="302.114" y="367.84" type="line"/>
      <point x="339.192" y="367.84" type="line"/>
      <point x="339.192" y="458.96" type="line"/>
      <point x="323.126839414234" y="480.914818081742"/>
      <point x="279.806526315784" y="519.4"/>
      <point x="213.11" y="519.4" type="curve" smooth="yes"/>
      <point x="105.004" y="519.4"/>
      <point x="39.23" y="407.4"/>
      <point x="39.23" y="253.84" type="curve" smooth="yes"/>
      <point x="39.23" y="92.26"/>
      <point x="110.458" y="-12.0"/>
      <point x="206.732" y="-12.0" type="curve" smooth="yes"/>
      <point x="279.2" y="-12.0"/>
      <point x="321.17" y="48.92"/>
      <point x="344.492" y="121.06" type="curve"/>
      <point x="327.712" y="143.78" type="line"/>
      <point x="309.944" y="83.78"/>
      <point x="273.824" y="18.28"/>
    </contour>
  </outline>
</glyph>
<glyph name="yen" format="2">
  <advance width="383.6"/>
  <unicode hex="00A5"/>
  <outline>
    <contour>
      <point x="52.49" y="344.0" type="line"/>
      <point x="52.49" y="313.72" type="line"/>
      <point x="331.572" y="313.72" type="line"/>
      <point x="331.572" y="344.0" type="line"/>
    </contour>
    <contour>
      <point x="52.49" y="207.98" type="line"/>
      <point x="52.49" y="177.7" type="line"/>
      <point x="331.572" y="177.7" type="line"/>
      <point x="331.572" y="207.98" type="line"/>
    </contour>
    <contour>
      <point x="5.696" y="710.0" type="line"/>
      <point x="5.696" y="680.0" type="line"/>
      <point x="9.598" y="680.0" type="line" smooth="yes"/>
      <point x="31.39" y="680.0"/>
      <point x="48.224000000000004" y="680.44"/>
      <point x="58.702" y="653.44" type="curve" smooth="yes"/>
      <point x="183.41" y="314.22" type="line"/>
      <point x="200.972" y="313.94" type="line"/>
      <point x="315.342" y="635.36" type="line" smooth="yes"/>
      <point x="329.504" y="673.9"/>
      <point x="349.658" y="680.0"/>
      <point x="372.154" y="680.0" type="curve" smooth="yes"/>
      <point x="376.298" y="680.0" type="line"/>
      <point x="376.298" y="710.0" type="line"/>
      <point x="233.89" y="710.0" type="line"/>
      <point x="233.89" y="680.0" type="line"/>
      <point x="245.558" y="680.0" type="line" smooth="yes"/>
      <point x="273.706" y="680.0"/>
      <point x="299.686" y="672.44"/>
      <point x="299.686" y="661.3" type="curve"/>
      <point x="186.7" y="337.72" type="line"/>
      <point x="206.778" y="346.46" type="line"/>
      <point x="90.898" y="669.44" type="line"/>
      <point x="90.898" y="676.86"/>
      <point x="121.872" y="680.0"/>
      <point x="145.688" y="680.0" type="curve" smooth="yes"/>
      <point x="157.77" y="680.0" type="line"/>
      <point x="157.77" y="710.0" type="line"/>
    </contour>
    <contour>
      <point x="106.586" y="0.0" type="line"/>
      <point x="278.576" y="0.0" type="line"/>
      <point x="278.576" y="30.0" type="line"/>
      <point x="267.976" y="30.0" type="line" smooth="yes"/>
      <point x="235.42000000000002" y="30.0"/>
      <point x="210.68" y="37.0"/>
      <point x="210.68" y="66.0" type="curve" smooth="yes"/>
      <point x="210.68" y="349.32" type="line"/>
      <point x="175.184" y="349.32" type="line"/>
      <point x="175.184" y="66.0" type="line" smooth="yes"/>
      <point x="175.184" y="37.0"/>
      <point x="149.94" y="30.0"/>
      <point x="117.186" y="30.0" type="curve" smooth="yes"/>
      <point x="106.586" y="30.0" type="line"/>
    </contour>
  </outline>
</glyph>
<glyph name="section" format="2">
  <advance width="423.338"/>
  <unicode hex="00A7"/>
  <outline>
    <contour>
      <point x="193.428" y="423.58" type="curve"/>
      <point x="113.8" y="426.16"/>
      <point x="39.638" y="378.42"/>
      <point x="39.638" y="281.3" type="curve" smooth="yes"/>
      <point x="39.638" y="179.46"/>
      <point x="107.962" y="137.9"/>
      <point x="174.286" y="96.48" type="curve" smooth="yes"/>
      <point x="247.3871786850811" y="50.045960137381584"/>
      <point x="311.856" y="25.04"/>
      <point x="311.856" y="-76.0" type="curve" smooth="yes"/>
      <point x="311.856" y="-160.88"/>
      <point x="267.764" y="-206.0"/>
      <point x="203.686" y="-206.0" type="curve" smooth="yes"/>
      <point x="143.136" y="-206.0"/>
      <point x="101.466" y="-175.84"/>
      <point x="73.45" y="-130.72" type="curve"/>
      <point x="73.97806707122517" y="-138.32000474240985"/>
      <point x="78.65919224041113" y="-162.8236615042093"/>
      <point x="99.73" y="-195.42" type="curve"/>
      <point x="99.73" y="-65.16" type="line"/>
      <point x="59.858" y="-65.16" type="line"/>
      <point x="59.858" y="-171.16" type="line"/>
      <point x="83.828" y="-201.14"/>
      <point x="136.824" y="-236.0"/>
      <point x="204.39" y="-236.0" type="curve" smooth="yes"/>
      <point x="281.38" y="-236.0"/>
      <point x="345.02" y="-174.46"/>
      <point x="345.02" y="-69.76" type="curve" smooth="yes"/>
      <point x="345.02" y="40.92"/>
      <point x="276.618" y="83.06"/>
      <point x="200.004" y="130.64" type="curve" smooth="yes"/>
      <point x="133.47674158960763" y="171.05414580743877"/>
      <point x="70.966" y="200.38"/>
      <point x="70.966" y="285.82" type="curve" smooth="yes"/>
      <point x="70.966" y="361.12"/>
      <point x="123.2159613947836" y="400.5792637108344"/>
      <point x="203.368" y="400.14" type="curve"/>
      <point x="204.996" y="400.42"/>
      <point x="193.89" y="423.02"/>
    </contour>
    <contour>
      <point x="261.752" y="64.12" type="curve"/>
      <point x="332.42" y="77.24"/>
      <point x="384.04200000000003" y="129.42"/>
      <point x="384.04200000000003" y="215.96" type="curve" smooth="yes"/>
      <point x="384.04200000000003" y="317.8"/>
      <point x="314.058" y="362.24"/>
      <point x="235.586" y="410.68" type="curve" smooth="yes"/>
      <point x="173.69686236875302" y="449.09397510923674"/>
      <point x="111.208" y="479.84"/>
      <point x="111.208" y="571.14" type="curve" smooth="yes"/>
      <point x="111.208" y="644.0"/>
      <point x="149.01984507042255" y="690.0"/>
      <point x="215.42000000000002" y="690.0" type="curve" smooth="yes"/>
      <point x="272.89" y="690.0"/>
      <point x="302.93" y="654.42"/>
      <point x="324.028" y="613.58" type="curve"/>
      <point x="325.685841296866" y="636.5607677627554"/>
      <point x="314.2418991509959" y="665.4200045840456"/>
      <point x="297.816" y="670.0" type="curve"/>
      <point x="297.816" y="567.16" type="line"/>
      <point x="337.488" y="567.16" type="line"/>
      <point x="337.488" y="657.0" type="line"/>
      <point x="318.808" y="685.58"/>
      <point x="275.684" y="720.0"/>
      <point x="214.518" y="720.0" type="curve" smooth="yes"/>
      <point x="136.924" y="720.0"/>
      <point x="78.242" y="662.6"/>
      <point x="78.242" y="570.62" type="curve" smooth="yes"/>
      <point x="78.242" y="463.38"/>
      <point x="144.786" y="417.8"/>
      <point x="215.682" y="374.8" type="curve" smooth="yes"/>
      <point x="287.2452569801294" y="331.8060208236011"/>
      <point x="352.714" y="291.76"/>
      <point x="352.714" y="210.74" type="curve" smooth="yes"/>
      <point x="352.714" y="145.44"/>
      <point x="319.69207046686296" y="103.8256297350138"/>
      <point x="253.572" y="89.4" type="curve"/>
      <point x="252.186" y="87.58"/>
      <point x="259.2" y="65.1"/>
    </contour>
  </outline>
</glyph>
<glyph name="dieresis" format="2">
  <advance width="342.302"/>
  <unicode hex="00A8"/>
  <anchor x="170.8" y="526.0" name="_top"/>
  <outline>
    <contour>
      <point x="102.056" y="651.26" type="curve" smooth="yes"/>
      <point x="118.782" y="651.26"/>
      <point x="132.47" y="666.52"/>
      <point x="132.47" y="694.06" type="curve" smooth="yes"/>
      <point x="132.47" y="721.46"/>
      <point x="118.782" y="736.72"/>
      <point x="102.056" y="736.72" type="curve" smooth="yes"/>
      <point x="84.628" y="736.72"/>
      <point x="71.642" y="721.46"/>
      <point x="71.642" y="694.06" type="curve" smooth="yes"/>
      <point x="71.642" y="666.52"/>
      <point x="84.628" y="651.26"/>
    </contour>
    <contour>
      <point x="242.082" y="651.26" type="curve" smooth="yes"/>
      <point x="259.51" y="651.26"/>
      <point x="272.496" y="666.52"/>
      <point x="272.496" y="694.06" type="curve" smooth="yes"/>
      <point x="272.496" y="721.46"/>
      <point x="259.51" y="736.72"/>
      <point x="242.082" y="736.72" type="curve" smooth="yes"/>
      <point x="224.654" y="736.72"/>
      <point x="211.668" y="721.46"/>
      <point x="211.668" y="694.06" type="curve" smooth="yes"/>
      <point x="211.668" y="666.52"/>
      <point x="224.654" y="651.26"/>
    </contour>
  </outline>
</glyph>
<glyph name="Eth" format="2">
  <advance width="499.382"/>
  <unicode hex="00D0"/>
  <outline>
    <contour>
      <point x="29.214" y="370.84" type="line"/>
      <point x="29.214" y="340.56" type="line"/>
      <point x="293.58" y="340.56" type="line"/>
      <point x="293.58" y="370.84" type="line"/>
    </contour>
    <component base="D" xOffset="-72.99"/>
  </outline>
</glyph>
<glyph name="multiply" format="2">
  <advance width="383.6"/>
  <unicode hex="00D7"/>
  <outline>
    <contour>
      <point x="82.672" y="523.26" type="line"/>
      <point x="66.894" y="500.4" type="line"/>
      <point x="301.928" y="157.6" type="line"/>
      <point x="316.706" y="180.46" type="line"/>
    </contour>
    <contour>
      <point x="301.148" y="523.26" type="line"/>
      <point x="67.114" y="180.46" type="line"/>
      <point x="81.892" y="157.6" type="line"/>
      <point x="316.728" y="500.4" type="line"/>
    </contour>
  </outline>
</glyph>
<glyph name="eng" format="2">
  <advance width="402.23"/>
  <unicode hex="014B"/>
  <outline>
    <contour>
      <point x="23.76" y="0.0" type="line"/>
      <point x="166.008" y="0.0" type="line"/>
      <point x="166.008" y="27.42" type="line"/>
      <point x="164.37" y="27.42" type="line" smooth="yes"/>
      <point x="144.204" y="27.42"/>
      <point x="115.068" y="30.56"/>
      <point x="115.068" y="37.42" type="curve" smooth="yes"/>
      <point x="115.068" y="398.84" type="line"/>
      <point x="113.924" y="392.36" type="line"/>
      <point x="113.924" y="509.4" type="line"/>
      <point x="23.76" y="509.4" type="line"/>
      <point x="23.76" y="483.7" type="line"/>
      <point x="30.578" y="481.7" type="line" smooth="yes"/>
      <point x="64.398" y="471.98"/>
      <point x="80.254" y="465.7"/>
      <point x="80.254" y="436.7" type="curve" smooth="yes"/>
      <point x="80.254" y="63.42" type="line" smooth="yes"/>
      <point x="80.254" y="34.42"/>
      <point x="57.054" y="27.42"/>
      <point x="24.838" y="27.42" type="curve" smooth="yes"/>
      <point x="23.76" y="27.42" type="line"/>
    </contour>
    <contour>
      <point x="340.81" y="358.4" type="line" smooth="yes"/>
      <point x="340.81" y="468.84"/>
      <point x="302.228" y="519.4"/>
      <point x="238.466" y="519.4" type="curve" smooth="yes"/>
      <point x="175.98" y="519.4"/>
      <point x="134.484" y="468.56"/>
      <point x="92.428" y="367.82" type="curve"/>
      <point x="99.752" y="337.8" type="line"/>
      <point x="136.65" y="429.82"/>
      <point x="176.2" y="485.84"/>
      <point x="230.714" y="485.84" type="curve" smooth="yes"/>
      <point x="285.676" y="485.84"/>
      <point x="305.996" y="444.1"/>
      <point x="305.996" y="348.94" type="curve"/>
      <point x="305.996" y="-71.22" type="line" smooth="yes"/>
      <point x="305.996" y="-170.74"/>
      <point x="279.3" y="-204.42"/>
      <point x="237.628" y="-204.42" type="curve" smooth="yes"/>
      <point x="215.122" y="-204.42"/>
      <point x="197.828" y="-196.12"/>
      <point x="184.58" y="-188.24" type="curve"/>
      <point x="184.58" y="-222.1" type="line"/>
      <point x="196.818" y="-230.26"/>
      <point x="213.848" y="-236.42"/>
      <point x="237.628" y="-236.42" type="curve" smooth="yes"/>
      <point x="286.756" y="-236.42"/>
      <point x="340.81" y="-203.02"/>
      <point x="340.81" y="-71.22" type="curve" smooth="yes"/>
    </contour>
  </outline>
</glyph>
<glyph name="Ohorn" format="2">
  <advance width="520.724"/>
  <unicode hex="01A0"/>
  <anchor x="256.08" y="742.0" name="top"/>
  <outline>
    <contour>
      <point x="286.132" y="706.02" type="curve"/>
      <point x="412.779328082922" y="685.12184537836"/>
      <point x="501.636" y="709.04"/>
      <point x="506.09000000000003" y="877.86" type="curve"/>
      <point x="472.662" y="877.86" type="line"/>
      <point x="466.406" y="737.5"/>
      <point x="412.124" y="720.0"/>
      <point x="258.652" y="720.0" type="curve"/>
      <point x="268.558" y="716.56"/>
      <point x="286.21" y="703.44"/>
    </contour>
    <contour>
      <point x="257.872" y="-10.0" type="curve" smooth="yes"/>
      <point x="386.538" y="-10.0"/>
      <point x="485.748" y="139.0"/>
      <point x="485.748" y="355.0" type="curve" smooth="yes"/>
      <point x="485.748" y="539.14"/>
      <point x="414.378" y="671.88"/>
      <point x="314.914" y="707.3" type="curve"/>
      <point x="296.794" y="716.3"/>
      <point x="277.794" y="720.0"/>
      <point x="257.872" y="720.0" type="curve" smooth="yes"/>
      <point x="129.986" y="720.0"/>
      <point x="31.698" y="572.0"/>
      <point x="31.698" y="355.0" type="curve" smooth="yes"/>
      <point x="31.698" y="139.0"/>
      <point x="129.986" y="-10.0"/>
    </contour>
    <contour>
      <point x="257.872" y="20.84" type="curve" smooth="yes"/>
      <point x="148.228" y="20.84"/>
      <point x="69.076" y="150.42"/>
      <point x="69.076" y="355.0" type="curve" smooth="yes"/>
      <point x="69.076" y="559.58"/>
      <point x="148.228" y="689.16"/>
      <point x="257.872" y="689.16" type="curve" smooth="yes"/>
      <point x="368.658" y="689.16"/>
      <point x="447.668" y="559.58"/>
      <point x="447.668" y="355.0" type="curve" smooth="yes"/>
      <point x="447.668" y="150.42"/>
      <point x="368.658" y="20.84"/>
    </contour>
  </outline>
</glyph>
<glyph name="verticallinemod" format="2">
  <advance width="341.6"/>
  <unicode hex="02C8"/>
  <outline>
    <contour>
      <point x="148.81" y="547.0" type="line"/>
      <point x="193.69" y="547.0" type="line"/>
      <point x="193.69" y="750.0" type="line"/>
      <point x="148.81" y="750.0" type="line"/>
    </contour>
  </outline>
</glyph>
<glyph name="hungarumlaut" format="2">
  <advance width="342.5"/>
  <unicode hex="02DD"/>
  <anchor x="159.004" y="525.0" name="_top"/>
  <outline>
    <contour>
      <point x="118.242" y="705.54" type="curve" smooth="yes"/>
      <point x="97.77" y="592.44" type="line"/>
      <point x="97.77" y="576.0" type="line"/>
      <point x="109.832" y="576.0" type="line"/>
      <point x="152.934" y="681.76" type="line" smooth="yes"/>
      <point x="160.102" y="697.74"/>
      <point x="166.48" y="713.72"/>
      <point x="166.48" y="728.28" type="curve" smooth="yes"/>
      <point x="166.48" y="745.98"/>
      <point x="158.156" y="756.1"/>
      <point x="147.028" y="756.1" type="curve" smooth="yes"/>
      <point x="130.986" y="756.1"/>
      <point x="124.08" y="737.52"/>
    </contour>
    <contour>
      <point x="210.516" y="705.54" type="curve" smooth="yes"/>
      <point x="190.044" y="592.44" type="line"/>
      <point x="190.044" y="576.0" type="line"/>
      <point x="202.808" y="576.0" type="line"/>
      <point x="245.712" y="681.76" type="line" smooth="yes"/>
      <point x="252.376" y="697.74"/>
      <point x="259.456" y="713.72"/>
      <point x="259.456" y="728.28" type="curve" smooth="yes"/>
      <point x="259.456" y="745.98"/>
      <point x="250.43" y="756.1"/>
      <point x="239.10399999999998" y="756.1" type="curve" smooth="yes"/>
      <point x="223.062" y="756.1"/>
      <point x="216.156" y="737.52"/>
    </contour>
  </outline>
</glyph>
<glyph name="endash" format="2">
  <advance width="405.932"/>
  <unicode hex="2013"/>
  <outline>
    <contour>
      <point x="49.566" y="325.68" type="line"/>
      <point x="49.566" y="304.88" type="line"/>
      <point x="356.564" y="304.88" type="line"/>
      <point x="356.564" y="325.68" type="line"/>
    </contour>
  </outline>
</glyph>
<glyph name="dagger" format="2">
  <advance width="278.664"/>
  <unicode hex="2020"/>
  <outline>
    <contour>
      <point x="135.506" y="506.54" type="line"/>
      <point x="143.356" y="506.54" type="line"/>
      <point x="245.546" y="486.12" type="line"/>
      <point x="264.238" y="486.12" type="line"/>
      <point x="264.238" y="538.76" type="line"/>
      <point x="245.546" y="538.76" type="line"/>
      <point x="143.356" y="524.7" type="line"/>
      <point x="135.506" y="524.7" type="line"/>
      <point x="33.316" y="538.76" type="line"/>
      <point x="14.624" y="538.76" type="line"/>
      <point x="14.624" y="486.12" type="line"/>
      <point x="33.316" y="486.12" type="line"/>
    </contour>
    <contour>
      <point x="157.894" y="710.0" type="line"/>
      <point x="120.968" y="710.0" type="line"/>
      <point x="120.968" y="676.4" type="line" smooth="yes"/>
      <point x="120.968" y="641.4"/>
      <point x="130.612" y="587.12"/>
      <point x="130.612" y="509.82" type="curve" smooth="yes"/>
      <point x="130.612" y="440.0"/>
      <point x="125.642" y="403.0"/>
      <point x="118.494" y="377.0" type="curve"/>
      <point x="118.494" y="358.4" type="line" smooth="yes"/>
      <point x="118.494" y="317.4"/>
      <point x="127.71000000000001" y="219.0"/>
      <point x="132.712" y="0.0" type="curve"/>
      <point x="146.15" y="0.0" type="line"/>
      <point x="151.152" y="219.0"/>
      <point x="160.368" y="317.4"/>
      <point x="160.368" y="358.4" type="curve" smooth="yes"/>
      <point x="160.368" y="377.0" type="line"/>
      <point x="153.22" y="403.0"/>
      <point x="148.25" y="440.0"/>
      <point x="148.25" y="509.82" type="curve" smooth="yes"/>
      <point x="148.25" y="587.12"/>
      <point x="157.894" y="641.4"/>
      <point x="157.894" y="676.4" type="curve" smooth="yes"/>
    </contour>
  </outline>
</glyph>
<glyph name="guilsinglleft" format="2">
  <advance width="198.056"/>
  <unicode hex="2039"/>
  <outline>
    <contour>
      <point x="69.06" y="243.1" type="line"/>
      <point x="156.814" y="455.0" type="line"/>
      <point x="138.156" y="455.0" type="line"/>
      <point x="42.142" y="282.42" type="line"/>
      <point x="42.142" y="247.58" type="line"/>
      <point x="138.156" y="75.0" type="line"/>
      <point x="156.814" y="75.0" type="line"/>
      <point x="69.28" y="284.62" type="line"/>
    </contour>
  </outline>
</glyph>
<glyph name="fraction" format="2">
  <advance width="280.774"/>
  <unicode hex="2044"/>
  <outline>
    <contour>
      <point x="343.752" y="710.0" type="line"/>
      <point x="-78.02" y="0.0" type="line"/>
      <point x="-59.766" y="0.0" type="line"/>
      <point x="361.808" y="710.0" type="line"/>
    </contour>
  </outline>
</glyph>
<glyph name="won" format="2">
  <advance width="383.6"/>
  <unicode hex="20A9"/>
  <outline>
    <contour>
      <point x="-6.728" y="710.0" type="line"/>
      <point x="-6.728" y="680.0" type="line"/>
      <point x="-3.528" y="680.0" type="line" smooth="yes"/>
      <point x="15.548" y="680.0"/>
      <point x="28.786" y="677.0"/>
      <point x="31.766" y="643.0" type="curve" smooth="yes"/>
      <point x="89.072" y="0.0" type="line"/>
      <point x="123.828" y="0.0" type="line"/>
      <point x="196.848" y="684.72" type="line"/>
      <point x="189.238" y="689.0" type="line"/>
      <point x="267.392" y="0.0" type="line"/>
      <point x="303.402" y="0.0" type="line"/>
      <point x="351.834" y="637.0" type="line" smooth="yes"/>
      <point x="354.012" y="671.0"/>
      <point x="369.052" y="680.0"/>
      <point x="386.348" y="680.0" type="curve" smooth="yes"/>
      <point x="389.548" y="680.0" type="line"/>
      <point x="389.548" y="710.0" type="line"/>
      <point x="281.786" y="710.0" type="line"/>
      <point x="281.786" y="680.0" type="line"/>
      <point x="290.878" y="680.0" type="line" smooth="yes"/>
      <point x="309.976" y="680.0"/>
      <point x="332.548" y="673.0"/>
      <point x="332.548" y="662.0" type="curve"/>
      <point x="284.5" y="15.7" type="line"/>
      <point x="291.572" y="13.82" type="line"/>
      <point x="211.56" y="710.0" type="line"/>
      <point x="179.584" y="710.0" type="line"/>
      <point x="105.862" y="18.02" type="line"/>
      <point x="114.616" y="18.44" type="line"/>
      <point x="57.332" y="670.0" type="line"/>
      <point x="57.332" y="677.0"/>
      <point x="80.982" y="680.0"/>
      <point x="99.618" y="680.0" type="curve" smooth="yes"/>
      <point x="109.81" y="680.0" type="line"/>
      <point x="109.81" y="710.0" type="line"/>
    </contour>
    <contour>
      <point x="-6.728" y="439.26" type="line"/>
      <point x="-6.728" y="408.98" type="line"/>
      <point x="64.258" y="408.98" type="line"/>
      <point x="69.26" y="408.98" type="line"/>
      <point x="157.242" y="408.98" type="line"/>
      <point x="163.62" y="439.26" type="line"/>
    </contour>
    <contour>
      <point x="233.726" y="408.98" type="line"/>
      <point x="318.992" y="408.98" type="line"/>
      <point x="328.908" y="408.98" type="line"/>
      <point x="389.548" y="408.98" type="line"/>
      <point x="389.548" y="439.26" type="line"/>
      <point x="229.844" y="439.26" type="line"/>
    </contour>
    <contour>
      <point x="137.066" y="252.16" type="line"/>
      <point x="252.218" y="252.16" type="line"/>
      <point x="243.962" y="282.44" type="line"/>
      <point x="143.466" y="282.44" type="line"/>
    </contour>
    <contour>
      <point x="72.602" y="282.44" type="line"/>
      <point x="-6.728" y="282.44" type="line"/>
      <point x="-6.728" y="252.16" type="line"/>
      <point x="77.506" y="252.16" type="line"/>
    </contour>
    <contour>
      <point x="315.352" y="252.16" type="line"/>
      <point x="389.548" y="252.16" type="line"/>
      <point x="389.548" y="282.44" type="line"/>
      <point x="317.442" y="282.44" type="line"/>
    </contour>
  </outline>
</glyph>
<glyph name="uni20B4" format="2">
  <advance width="383.6"/>
  <unicode hex="20B4"/>
  <outline>
    <contour>
      <point x="13.238" y="455.86" type="line"/>
      <point x="13.238" y="425.58" type="line"/>
      <point x="370.362" y="425.58" type="line"/>
      <point x="370.362" y="455.86" type="line"/>
    </contour>
    <contour>
      <point x="13.238" y="314.32" type="line"/>
      <point x="13.238" y="284.04" type="line"/>
      <point x="370.362" y="284.04" type="line"/>
      <point x="370.362" y="314.32" type="line"/>
    </contour>
    <contour>
      <point x="199.046" y="720.0" type="curve" smooth="yes"/>
      <point x="136.682" y="720.0"/>
      <point x="90.61763662031385" y="681.857830706122"/>
      <point x="69.578" y="653.42" type="curve"/>
      <point x="69.578" y="568.42" type="line"/>
      <point x="110.328" y="568.42" type="line"/>
      <point x="110.328" y="669.14" type="line"/>
      <point x="97.98" y="665.56"/>
      <point x="84.19200000000001" y="642.0"/>
      <point x="88.414" y="620.58" type="curve"/>
      <point x="109.414" y="658.42"/>
      <point x="145.39" y="690.0"/>
      <point x="198.1" y="690.0" type="curve" smooth="yes"/>
      <point x="260.135249999974" y="690.0"/>
      <point x="291.844" y="644.3012962962963"/>
      <point x="291.844" y="568.82" type="curve" smooth="yes"/>
      <point x="291.844" y="512.98"/>
      <point x="276.142" y="472.28"/>
      <point x="250.006" y="444.02" type="curve"/>
      <point x="295.804" y="442.2" type="line"/>
      <point x="313.748" y="471.48"/>
      <point x="325.756" y="513.46"/>
      <point x="325.756" y="563.0" type="curve" smooth="yes"/>
      <point x="325.756" y="659.86"/>
      <point x="278.8745" y="720.0"/>
    </contour>
    <contour>
      <point x="194.89" y="-10.0" type="curve" smooth="yes"/>
      <point x="266.348" y="-10.0"/>
      <point x="318.5144066180303" y="38.86206192020134"/>
      <point x="344.128" y="77.62" type="curve"/>
      <point x="344.128" y="165.44" type="line"/>
      <point x="304.256" y="165.44" type="line"/>
      <point x="304.256" y="65.4" type="line"/>
      <point x="318.022" y="70.7"/>
      <point x="329.052" y="95.9"/>
      <point x="324.072" y="111.78" type="curve"/>
      <point x="299.4135840821487" y="60.903636146515446"/>
      <point x="255.022" y="20.0"/>
      <point x="196.276" y="20.0" type="curve" smooth="yes"/>
      <point x="129.57" y="20.0"/>
      <point x="84.402" y="72.04"/>
      <point x="84.402" y="163.92" type="curve" smooth="yes"/>
      <point x="84.402" y="219.46"/>
      <point x="98.082" y="263.14"/>
      <point x="124.614" y="291.7" type="curve"/>
      <point x="78.364" y="291.0" type="line"/>
      <point x="59.386" y="261.12"/>
      <point x="49.588" y="221.86"/>
      <point x="49.588" y="173.14" type="curve" smooth="yes"/>
      <point x="49.588" y="54.72"/>
      <point x="110.304" y="-10.0"/>
    </contour>
  </outline>
</glyph>
<glyph name="cedi" format="2">
  <advance width="383.6"/>
  <unicode hex="20B5"/>
  <outline>
    <contour>
      <point x="224.334" y="700.0" type="curve" smooth="yes"/>
      <point x="104.024" y="700.0"/>
      <point x="24.628" y="574.16"/>
      <point x="24.628" y="355.0" type="curve" smooth="yes"/>
      <point x="24.628" y="148.6"/>
      <point x="100.36501408450704" y="10.0"/>
      <point x="211.196" y="10.0" type="curve" smooth="yes"/>
      <point x="299.376" y="10.0"/>
      <point x="347.48" y="94.58"/>
      <point x="367.24" y="220.4" type="curve"/>
      <point x="346.942" y="236.12" type="line"/>
      <point x="330.218" y="124.46"/>
      <point x="291.536" y="40.28"/>
      <point x="212.12" y="40.28" type="curve" smooth="yes"/>
      <point x="119.36775" y="40.28"/>
      <point x="62.466" y="163.6"/>
      <point x="62.466" y="355.0" type="curve" smooth="yes"/>
      <point x="62.466" y="562.3"/>
      <point x="123.762" y="670.0"/>
      <point x="224.334" y="670.0" type="curve" smooth="yes"/>
      <point x="283.334" y="670.0"/>
      <point x="318.09000000000003" y="637.6"/>
      <point x="335.506" y="600.88" type="curve"/>
      <point x="343.862" y="591.5"/>
      <point x="341.022" y="635.94"/>
      <point x="316.79" y="647.68" type="curve"/>
      <point x="316.79" y="539.16" type="line"/>
      <point x="356.42" y="539.16" type="line"/>
      <point x="356.42" y="632.56" type="line"/>
      <point x="335.486" y="663.88"/>
      <point x="285.744" y="700.0"/>
    </contour>
    <contour>
      <point x="194.758" y="790.0" type="line"/>
      <point x="194.758" y="686.86" type="line"/>
      <point x="194.758" y="679.58" type="line"/>
      <point x="194.758" y="31.84" type="line"/>
      <point x="194.758" y="23.86" type="line"/>
      <point x="194.758" y="-120.0" type="line"/>
      <point x="219.76" y="-120.0" type="line"/>
      <point x="219.76" y="25.44" type="line"/>
      <point x="219.76" y="30.86" type="line"/>
      <point x="219.76" y="679.14" type="line"/>
      <point x="219.76" y="686.28" type="line"/>
      <point x="219.76" y="790.0" type="line"/>
    </contour>
  </outline>
</glyph>
<glyph name="numero" format="2">
  <advance width="816.218"/>
  <unicode hex="2116"/>
  <outline>
    <contour>
      <point x="544.8" y="227.68" type="line"/>
      <point x="775.7" y="227.68" type="line"/>
      <point x="775.7" y="196.98" type="line"/>
      <point x="544.8" y="196.98" type="line"/>
    </contour>
    <component base="N" xOffset="-181.8"/>
    <component base="ordmasculine" xOffset="523.5"/>
  </outline>
</glyph>
<glyph name="minus" format="2">
  <advance width="383.6"/>
  <unicode hex="2212"/>
  <outline>
    <contour>
      <point x="323.314" y="350.98" type="line"/>
      <point x="60.286" y="350.98" type="line"/>
      <point x="60.286" y="333.6" type="line"/>
      <point x="323.314" y="333.6" type="line"/>
    </contour>
  </outline>
</glyph>
<glyph name="uni27F7" format="2">
  <advance width="889.5"/>
  <unicode hex="27F7"/>
  <outline>
    <contour>
      <point x="722.9" y="335.0" type="line"/>
      <point x="640.8" y="192.0" type="line"/>
      <point x="648.1" y="179.0" type="line"/>
      <point x="852.5" y="346.0" type="line"/>
      <point x="852.5" y="360.0" type="line"/>
      <point x="648.1" y="527.0" type="line"/>
      <point x="640.8" y="514.0" type="line"/>
      <point x="722.9" y="371.0" type="line"/>
      <point x="167.5" y="371.0" type="line"/>
      <point x="248.7" y="514.0" type="line"/>
      <point x="241.4" y="527.0" type="line"/>
      <point x="37.9" y="360.0" type="line"/>
      <point x="37.9" y="346.0" type="line"/>
      <point x="241.4" y="179.0" type="line"/>
      <point x="248.7" y="192.0" type="line"/>
      <point x="167.5" y="335.0" type="line"/>
    </contour>
  </outline>
</glyph>
<glyph name="Euro.proportional" format="2">
  <advance width="423.22"/>
  <outline>
    <contour>
      <point x="16.272" y="437.28" type="line"/>
      <point x="16.272" y="407.0" type="line"/>
      <point x="274.442" y="407.0" type="line"/>
      <point x="274.442" y="437.28" type="line"/>
    </contour>
    <contour>
      <point x="16.272" y="285.72" type="line"/>
      <point x="16.272" y="255.44" type="line"/>
      <point x="246.414" y="255.44" type="line"/>
      <point x="246.414" y="285.72" type="line"/>
    </contour>
    <contour>
      <point x="108.866" y="349.84" type="curve"/>
      <point x="108.866" y="600.0"/>
      <point x="179.322" y="689.14"/>
      <point x="267.262" y="689.14" type="curve" smooth="yes"/>
      <point x="311.376" y="689.14"/>
      <point x="351.09" y="665.88"/>
      <point x="370.408" y="624.72" type="curve"/>
      <point x="374.654" y="632.98"/>
      <point x="363.404" y="663.84"/>
      <point x="350.67" y="666.82" type="curve"/>
      <point x="350.67" y="566.56" type="line"/>
      <point x="390.3" y="566.56" type="line"/>
      <point x="390.3" y="655.26" type="line"/>
      <point x="372.576" y="684.28"/>
      <point x="325.242" y="719.14"/>
      <point x="267.262" y="719.14" type="curve" smooth="yes"/>
      <point x="159.65" y="719.14"/>
      <point x="71.49" y="612.6"/>
      <point x="71.49" y="349.84" type="curve"/>
      <point x="71.49" y="103.54"/>
      <point x="148.128" y="-10.0"/>
      <point x="250.01" y="-10.0" type="curve" smooth="yes"/>
      <point x="332.322" y="-10.0"/>
      <point x="376.81" y="56.06"/>
      <point x="400.812" y="148.18" type="curve"/>
      <point x="381.57" y="164.76" type="line"/>
      <point x="361.89" y="88.22"/>
      <point x="325.538" y="20.28"/>
      <point x="252.32" y="20.28" type="curve" smooth="yes"/>
      <point x="169.01" y="20.28"/>
      <point x="108.866" y="116.4"/>
    </contour>
  </outline>
</glyph>
<glyph name="baht.proportional" format="2">
  <advance width="418.918"/>
  <outline>
    <contour>
      <point x="205.104" y="790.0" type="line"/>
      <point x="205.104" y="697.18" type="line"/>
      <point x="205.104" y="688.06" type="line"/>
      <point x="205.104" y="23.240000000000002" type="line"/>
      <point x="205.104" y="13.24" type="line"/>
      <point x="205.104" y="-118.6" type="line"/>
      <point x="228.546" y="-118.6" type="line"/>
      <point x="228.546" y="13.38" type="line"/>
      <point x="228.546" y="23.66" type="line"/>
      <point x="228.546" y="688.34" type="line"/>
      <point x="228.546" y="696.76" type="line"/>
      <point x="228.546" y="790.0" type="line"/>
    </contour>
    <contour>
      <point x="226.466" y="708.6" type="curve"/>
      <point x="19.472" y="708.6" type="line"/>
      <point x="19.472" y="678.6" type="line"/>
      <point x="26.872" y="678.6" type="line" smooth="yes"/>
      <point x="58.262" y="678.6"/>
      <point x="81.856" y="671.6"/>
      <point x="81.856" y="642.6" type="curve" smooth="yes"/>
      <point x="81.856" y="67.4" type="line" smooth="yes"/>
      <point x="81.856" y="38.4"/>
      <point x="58.262" y="31.4"/>
      <point x="26.872" y="31.4" type="curve" smooth="yes"/>
      <point x="19.472" y="31.4" type="line"/>
      <point x="19.472" y="1.4000000000000001" type="line"/>
      <point x="230.886" y="1.4000000000000001" type="line" smooth="yes"/>
      <point x="330.54" y="1.4000000000000001"/>
      <point x="388.134" y="74.96"/>
      <point x="388.134" y="193.8" type="curve" smooth="yes"/>
      <point x="388.134" y="310.26"/>
      <point x="326.328" y="384.28"/>
      <point x="201.642" y="384.28" type="curve"/>
      <point x="197.52" y="363.0" type="line"/>
      <point x="315.366" y="363.0"/>
      <point x="369.914" y="434.3"/>
      <point x="369.914" y="540.32" type="curve" smooth="yes"/>
      <point x="369.914" y="643.6"/>
      <point x="318.5" y="708.6"/>
    </contour>
    <contour>
      <point x="219.476" y="386.28" type="curve"/>
      <point x="116.45" y="386.28" type="line"/>
      <point x="116.45" y="677.34" type="line"/>
      <point x="227.148" y="677.34" type="line"/>
      <point x="299.54200000000003" y="677.34"/>
      <point x="332.78" y="627.9"/>
      <point x="332.78" y="538.76" type="curve" smooth="yes"/>
      <point x="332.78" y="450.28"/>
      <point x="298.73" y="386.28"/>
    </contour>
    <contour>
      <point x="222.358" y="357.72" type="line"/>
      <point x="309.856" y="357.72"/>
      <point x="350.362" y="290.28"/>
      <point x="350.362" y="194.94" type="curve" smooth="yes"/>
      <point x="350.362" y="90.66"/>
      <point x="310.824" y="32.52"/>
      <point x="231.348" y="32.52" type="curve" smooth="yes"/>
      <point x="116.45" y="32.52" type="line"/>
      <point x="116.45" y="357.72" type="line"/>
    </contour>
  </outline>
</glyph>
<glyph name="circumflex_acute" format="2">
  <advance width="349.602"/>
  <anchor x="159.342" y="558.0" name="_top"/>
  <outline>
    <contour>
      <point x="283.258" y="824.98" type="curve" smooth="yes"/>
      <point x="247.448" y="707.56" type="line"/>
      <point x="247.448" y="693.7" type="line"/>
      <point x="257.872" y="693.7" type="line"/>
      <point x="315.794" y="797.9" type="line" smooth="yes"/>
      <point x="326.196" y="815.18"/>
      <point x="334.596" y="831.16"/>
      <point x="334.596" y="846.58" type="curve" smooth="yes"/>
      <point x="334.596" y="861.7"/>
      <point x="326.152" y="872.68"/>
      <point x="314.166" y="872.68" type="curve" smooth="yes"/>
      <point x="300.54200000000003" y="872.68"/>
      <point x="292.516" y="855.82"/>
    </contour>
    <component base="circumflex" xOffset="-96.994"/>
  </outline>
</glyph>
<glyph name="circumflex_acute.uc" format="2">
  <advance width="349.8"/>
  <anchor x="167.6" y="749.0" name="_top"/>
  <outline>
    <contour>
      <point x="289.23" y="928.2" type="curve" smooth="yes"/>
      <point x="256.804" y="850.38" type="line"/>
      <point x="256.804" y="836.52" type="line"/>
      <point x="266.766" y="836.52" type="line"/>
      <point x="316.234" y="902.32" type="line" smooth="yes"/>
      <point x="332.8256661754379" y="922.760920763994"/>
      <point x="342.592" y="936.1655151515151"/>
      <point x="342.592" y="952.7" type="curve" smooth="yes"/>
      <point x="342.592" y="966.820358974359"/>
      <point x="335.07" y="977.36"/>
      <point x="323.722" y="977.36" type="curve" smooth="yes"/>
      <point x="310.176" y="977.36"/>
      <point x="303.27" y="962.36"/>
    </contour>
    <component base="circumflex.uc" xOffset="-89.586"/>
  </outline>
</glyph>
<glyph name="sterling.altprop" format="2">
  <advance width="406.624"/>
  <outline>
    <contour>
      <point x="25.686" y="352.98" type="line"/>
      <point x="25.686" y="322.7" type="line"/>
      <point x="290.966" y="322.7" type="line"/>
      <point x="290.966" y="352.98" type="line"/>
    </contour>
    <contour>
      <point x="31.534" y="0.0" type="line"/>
      <point x="366.932" y="0.0" type="line"/>
      <point x="366.932" y="178.64" type="line"/>
      <point x="347.306" y="178.64" type="line"/>
      <point x="339.4" y="81.12" type="line" smooth="yes"/>
      <point x="336.596" y="43.86"/>
      <point x="312.758" y="35.88"/>
      <point x="253.758" y="35.88" type="curve"/>
      <point x="56.562" y="35.88" type="line"/>
      <point x="62.024" y="26.38" type="line"/>
      <point x="123.202" y="68.54"/>
      <point x="159.156" y="139.92"/>
      <point x="159.156" y="225.76" type="curve" smooth="yes"/>
      <point x="159.156" y="335.48"/>
      <point x="103.49" y="411.28"/>
      <point x="103.49" y="528.14" type="curve" smooth="yes"/>
      <point x="103.49" y="631.72361006289"/>
      <point x="152.386302325586" y="688.28"/>
      <point x="221.72" y="688.28" type="curve" smooth="yes"/>
      <point x="273.961283582082" y="688.28"/>
      <point x="307.36191087689" y="657.985374882254"/>
      <point x="326.294" y="632.0" type="curve"/>
      <point x="326.272914735624" y="643.541193701138"/>
      <point x="317.893872413464" y="659.660005799388"/>
      <point x="307.942" y="672.84" type="curve"/>
      <point x="307.942" y="573.02" type="line"/>
      <point x="346.67" y="573.02" type="line"/>
      <point x="346.67" y="660.86" type="line"/>
      <point x="328.208448058094" y="683.698769018878"/>
      <point x="287.04607407407" y="718.28"/>
      <point x="220.576" y="718.28" type="curve" smooth="yes"/>
      <point x="130.381359073364" y="718.28"/>
      <point x="66.334" y="642.58265641026"/>
      <point x="66.334" y="527.3" type="curve" smooth="yes"/>
      <point x="66.334" y="402.98"/>
      <point x="130.6" y="317.04"/>
      <point x="130.6" y="222.96" type="curve" smooth="yes"/>
      <point x="130.6" y="124.82"/>
      <point x="86.96" y="77.7"/>
      <point x="31.534" y="35.42" type="curve"/>
    </contour>
  </outline>
</glyph>
<glyph name="whitediamond" format="2">
  <advance width="425.8"/>
  <outline>
    <contour>
      <point x="212.9" y="52.0" type="line"/>
      <point x="392.0" y="313.0" type="line"/>
      <point x="212.9" y="574.0" type="line"/>
      <point x="33.8" y="313.0" type="line"/>
    </contour>
    <contour>
      <point x="212.9" y="106.0" type="line"/>
      <point x="71.6" y="313.0" type="line"/>
      <point x="212.9" y="520.0" type="line"/>
      <point x="355.1" y="313.0" type="line"/>
    </contour>
  </outline>
</glyph>
<glyph name="zero.den" format="2">
  <advance width="224.52"/>
  <outline>
    <contour>
      <point x="112.26" y="347.0" type="curve" smooth="yes"/>
      <point x="58.714" y="347.0"/>
      <point x="21.330000000000002" y="277.0"/>
      <point x="21.330000000000002" y="170.0" type="curve" smooth="yes"/>
      <point x="21.330000000000002" y="64.0"/>
      <point x="58.714" y="-6.0"/>
      <point x="112.26" y="-6.0" type="curve" smooth="yes"/>
      <point x="165.104" y="-6.0"/>
      <point x="202.686" y="64.0"/>
      <point x="202.686" y="170.14" type="curve" smooth="yes"/>
      <point x="202.686" y="277.0"/>
      <point x="165.104" y="347.0"/>
    </contour>
    <contour>
      <point x="112.26" y="20.72" type="curve" smooth="yes"/>
      <point x="76.726" y="20.72"/>
      <point x="55.153999999999996" y="71.87445637583893"/>
      <point x="55.153999999999996" y="170.0" type="curve" smooth="yes"/>
      <point x="55.153999999999996" y="268.1254133333333"/>
      <point x="76.726" y="320.28"/>
      <point x="112.26" y="320.28" type="curve" smooth="yes"/>
      <point x="147.29" y="320.28"/>
      <point x="168.862" y="268.26554362416107"/>
      <point x="168.862" y="170.14" type="curve" smooth="yes"/>
      <point x="168.862" y="72.01458666666667"/>
      <point x="147.29" y="20.72"/>
    </contour>
  </outline>
</glyph>
